<svg xmlns="http://www.w3.org/2000/svg" version="1.1" xmlns:xlink="http://www.w3.org/1999/xlink" xmlns:svgjs="http://svgjs.com/svgjs" width="512" height="512" x="0" y="0" viewBox="0 0 512 512" style="enable-background:new 0 0 512 512" xml:space="preserve" class=""><g><path d="M467.25 433.06c31.08-35.05 46.88-78.3 44.52-122.15-2.27-42.05-12.07-78.13-29.16-107.38a94.88 94.88 0 0 0 1.39-29.39c-4.73-48.37-40.45-63.13-42-63.74a7.5 7.5 0 0 0-9.38 10.52c3.41 6.35 4.22 16.82 2.44 30.09a203.07 203.07 0 0 0-35.9-20.95c2.56-8.73 4.05-19.48 1.55-30.56C397.43 85 388.12 73 373 63.92c-43.09-25.92-40.82-48.2-40.6-49.75a7.28 7.28 0 0 0-3.4-8.29 7.6 7.6 0 0 0-9.17 1.2 103.48 103.48 0 0 0-19.46 28.21A83.81 83.81 0 0 0 294 55.05a7.45 7.45 0 0 0-.14.8 68.18 68.18 0 0 0 7.9 46.08 97.15 97.15 0 0 0 20.19 25.24A88 88 0 0 0 300.7 138c-17.7 12.19-27.29 30.83-27.7 53.86a94 94 0 0 0 4.6 30.76 7.68 7.68 0 0 0 7.07 5.16h.65a7.25 7.25 0 0 0 6.64-6c.5-1.46 7.6-19.71 51.84-23.52 18-1.55 31.91-9.39 40.21-22.67.82-1.31 1.56-2.64 2.24-4 15.32 9.86 35.13 28.46 38.09 59.74 2.41 25.48-3.66 47.78-17.55 64.51-.78.94-1.6 1.85-2.43 2.75-5.18-11.67-8.63-25.49-10.06-40.57a22.4 22.4 0 0 0-37.84-14c-33.81 32.6-34.32 65-29.5 85.4-29.29 5.5-46.22 22-55.47 35.58-14.18 20.83-19.16 48.5-12.7 70.49a41.53 41.53 0 0 0 3.5 8.33c6.65 12.15 31.43 49.3 84.83 49.3a121.6 121.6 0 0 0 13.33-.74 142.52 142.52 0 0 0 38.66-10.19c12.23 15 32.88 29.81 66.73 29.81a131.49 131.49 0 0 0 17.68-1.25 22.39 22.39 0 0 0 12.43-38.38c-9.3-8.84-21.43-22.59-28.7-39.31zM342.46 183.3c-4.91.43-9.45 1-13.65 1.74 1.43-4.18 5.38-9.44 15.52-13.69a7.5 7.5 0 1 0-5.8-13.83c-19.75 8.28-25.25 21.55-25.47 31.28-11.49 3.64-19.32 8.41-24.66 13.07-1.59-15 .25-37.35 20.83-51.58a73 73 0 0 1 28.2-11.78 112.7 112.7 0 0 0 39.4 14.16c-2.56 14.33-11.08 28.63-34.37 30.63zm37.44-45.37c-12.21-1.89-46.46-10-65.09-43.32A56.54 56.54 0 0 1 309.57 82a64.16 64.16 0 0 0 27.13 13.79 7.25 7.25 0 0 0 1.84.23 7.5 7.5 0 0 0 1.83-14.77c-22.14-5.6-29.53-20.25-31.37-25A69.57 69.57 0 0 1 313.83 42a85.15 85.15 0 0 1 6.46-11.58c4.71 12.38 16.51 29.17 45 46.32 11.4 6.86 18.38 15.59 20.74 25.94 3.26 14.24-2.69 28.56-6.13 35.25zm116.89 173.78c2 38-10.49 71.55-30.19 98.38-14.44-10.06-20.21-21-17.14-32.68 4-15.11 10-21.63 15.28-27.37 6.76-7.35 13.76-14.94 8.52-34-3.07-11.15-3.81-27.16 3.33-38.66a28.27 28.27 0 0 1 14.1-11.53 278.31 278.31 0 0 1 6.1 45.86zm-45.94-177.08c7.79 7.8 16.2 20.72 18.18 41 .29 3 .43 5.86.46 8.66a172.57 172.57 0 0 0-21-22.42 117.81 117.81 0 0 0 2.36-27.24zm-84 120.19a7.39 7.39 0 0 1 12.49 4.62c1.78 18.81 6.25 35.44 13.29 49.55-13.45 9.76-30.63 16.01-50.75 18.51-5-18.85-3.52-45.23 24.95-72.68zm15.81 217.35a118.15 118.15 0 0 1-23.86 5.3c-53.4 5.82-77.33-29.8-83.38-40.85a26.45 26.45 0 0 1-2.27-5.36c-4.3-14.63-2.66-38.19 10.71-57.82 7.16-10.51 20-23.13 41.78-28.4 11.94 13.42 31.57 29.19 61.73 37.1-4.95 16.86-14.37 56.92-4.73 90.03zm14-5.43c-10.25-37.3 7.15-87 7.34-87.55a7.51 7.51 0 0 0-5.58-9.87c-25.11-5.07-42.65-16.13-54.44-27 31.81-3.93 57.42-16.63 74.27-36.92 16.51-19.85 23.75-46 21-75.51-3.75-39.58-29.73-61.9-48-72.86a73.47 73.47 0 0 0 1.45-11.15c.31-.58.63-1.21 1-1.89 47.59 21.93 78.42 57.32 93.26 107.27a43.61 43.61 0 0 0-23 18.19c-8.23 13.26-10.12 32.16-5.06 50.56 3 11 1 13.24-5.09 19.84-5.82 6.33-13.8 15-18.74 33.7-3.37 12.77-1.86 31 22.23 48.22a178.15 178.15 0 0 1-60.62 44.97zm90.79 24.1a7.23 7.23 0 0 1-6 5.05c-35.16 4.79-56.09-7.09-68.26-20.32a191.16 191.16 0 0 0 42.92-30.94c6.72 13.35 16.57 26.29 29.44 38.58a7.24 7.24 0 0 1 1.92 7.63z" fill="#000000" data-original="#000000" class=""></path><path d="M329.66 382.94a7.49 7.49 0 0 0-9.61-4.49l-14 5.11a7.5 7.5 0 0 0 2.56 14.55 7.63 7.63 0 0 0 2.56-.45l14.05-5.11a7.5 7.5 0 0 0 4.44-9.61zM341.69 437.83l-14 5.1a7.5 7.5 0 0 0 2.56 14.55 7.39 7.39 0 0 0 2.56-.45l14-5.11a7.5 7.5 0 1 0-5.12-14.09zM240.56 147c14.18-20.83 19.16-48.5 12.7-70.49a41.53 41.53 0 0 0-3.5-8.33c-6.65-12.15-31.43-49.3-84.83-49.3a121.6 121.6 0 0 0-13.33.74 142.52 142.52 0 0 0-38.66 10.19C100.71 14.8 80.06 0 46.21 0a131.49 131.49 0 0 0-17.68 1.25A22.39 22.39 0 0 0 16.1 39.63c9.25 8.84 21.38 22.59 28.65 39.31C13.67 114-2.13 157.24.23 201.09c2.27 42 12.07 78.13 29.16 107.38A94.88 94.88 0 0 0 28 337.86c4.77 48.37 40.49 63.14 42 63.74a7.5 7.5 0 0 0 9.38-10.52C76 384.73 75.17 374.26 77 361a203.07 203.07 0 0 0 35.9 20.95c-2.56 8.73-4 19.48-1.55 30.56C114.57 427 123.88 439 139 448.08c43.13 25.94 40.86 48.2 40.64 49.75a7.28 7.28 0 0 0 3.36 8.29 7.6 7.6 0 0 0 9.17-1.2 103.48 103.48 0 0 0 19.46-28.21A83.81 83.81 0 0 0 218 457a7.45 7.45 0 0 0 .14-.8 68.18 68.18 0 0 0-7.9-46.08 97.15 97.15 0 0 0-20.19-25.24 88 88 0 0 0 21.21-10.78c17.69-12.24 27.29-30.88 27.75-53.91a94 94 0 0 0-4.6-30.76 7.68 7.68 0 0 0-7.07-5.16h-.65a7.25 7.25 0 0 0-6.64 6c-.5 1.46-7.6 19.71-51.84 23.52-18 1.55-31.91 9.39-40.21 22.67-.82 1.31-1.56 2.64-2.24 4-15.32-9.86-35.13-28.46-38.09-59.74-2.41-25.48 3.66-47.78 17.55-64.51.78-.94 1.6-1.85 2.43-2.75 5.18 11.67 8.63 25.49 10.06 40.57a22.4 22.4 0 0 0 37.84 14c33.81-32.6 34.32-65 29.5-85.4 29.33-5.55 46.26-22.03 55.51-35.63zm-71 181.7c4.91-.43 9.45-1 13.65-1.74-1.43 4.18-5.38 9.44-15.52 13.69a7.5 7.5 0 1 0 5.8 13.83c19.75-8.28 25.25-21.55 25.47-31.28 11.49-3.64 19.32-8.41 24.66-13.07 1.59 15-.25 37.35-20.83 51.58a73 73 0 0 1-28.2 11.78 112.7 112.7 0 0 0-39.4-14.16c2.54-14.33 11.06-28.63 34.35-30.63zm-37.46 45.37c12.21 1.89 46.46 10 65.09 43.32a56.54 56.54 0 0 1 5.24 12.61 64.16 64.16 0 0 0-27.13-13.83 7.25 7.25 0 0 0-1.84-.23 7.5 7.5 0 0 0-1.83 14.77c22.14 5.6 29.53 20.25 31.37 25a69.57 69.57 0 0 1-4.83 14.29 85.15 85.15 0 0 1-6.46 11.58c-4.71-12.38-16.51-29.17-45-46.32-11.4-6.86-18.38-15.59-20.74-25.94-3.26-14.24 2.69-28.56 6.13-35.25zM26.46 28.79a7.4 7.4 0 0 1 4.1-12.68c35.16-4.79 56.09 7.09 68.26 20.32A191.16 191.16 0 0 0 55.9 67.37C49.18 54 39.33 41.08 26.46 28.79zm-11.25 171.5c-2.05-38 10.49-71.55 30.19-98.38 14.44 10.06 20.21 21 17.14 32.68-4 15.11-10 21.63-15.28 27.37-6.76 7.35-13.76 14.94-8.52 34 3.07 11.15 3.81 27.16-3.33 38.66a28.27 28.27 0 0 1-14.1 11.53 278.31 278.31 0 0 1-6.1-45.86zm45.94 177.08c-7.79-7.8-16.2-20.72-18.18-41-.29-3-.43-5.86-.46-8.66a172.57 172.57 0 0 0 21 22.42 117.81 117.81 0 0 0-2.36 27.24zm32.58-170.8c-16.51 19.85-23.75 46-21 75.51 3.75 39.58 29.73 61.9 48 72.86a73.47 73.47 0 0 0-1.45 11.15c-.31.58-.63 1.21-1 1.89-47.51-21.93-78.34-57.32-93.18-107.27a43.61 43.61 0 0 0 23-18.19c8.23-13.26 10.12-32.16 5.06-50.56-3-11-1-13.24 5.09-19.84 5.82-6.33 13.8-15 18.74-33.7 3.37-12.77 1.86-31-22.23-48.22a178.15 178.15 0 0 1 60.51-44.94c10.25 37.3-7.15 87-7.34 87.55a7.51 7.51 0 0 0 5.58 9.87c25.11 5.07 42.65 16.13 54.44 27-31.76 3.9-57.37 16.6-74.22 36.89zm51.44 50.61a7.39 7.39 0 0 1-12.49-4.62c-1.78-18.81-6.25-35.44-13.29-49.55 13.43-9.76 30.61-16 50.73-18.51 5 18.85 3.52 45.23-24.95 72.68zM186.38 167c-11.94-13.42-31.57-29.19-61.73-37.1 4.93-16.85 14.4-56.92 4.71-90a118.15 118.15 0 0 1 23.86-5.3c53.4-5.82 77.33 29.8 83.38 40.85a26.45 26.45 0 0 1 2.27 5.36c4.3 14.63 2.66 38.19-10.71 57.82-7.16 10.44-19.96 23.06-41.78 28.37z" fill="#000000" data-original="#000000" class=""></path><path d="M203.43 113.89a7.63 7.63 0 0 0-2.56.45l-14.05 5.11a7.5 7.5 0 0 0 5.13 14.1l14-5.11a7.5 7.5 0 0 0-2.56-14.55zM188.84 59.45a7.5 7.5 0 0 0-7.05-4.93 7.39 7.39 0 0 0-2.56.45l-14 5.11a7.5 7.5 0 1 0 5.12 14.09l14-5.1a7.5 7.5 0 0 0 4.49-9.62z" fill="#000000" data-original="#000000" class=""></path></g></svg>